<?xml version="1.0" encoding="utf-8"?>
<!-- Generator: Adobe Adobe Illustrator 24.2.0, SVG Export Plug-In . SVG Version: 6.00 Build 0)  -->
<svg version="1.1" id="Layer_1" xmlns="http://www.w3.org/2000/svg" xmlns:xlink="http://www.w3.org/1999/xlink" x="0px" y="0px"
	 width="24px" height="24px" viewBox="0 0 24 24" style="enable-background:new 0 0 24 24;" xml:space="preserve">
<style type="text/css">
	.st0{opacity:0.5294;fill:#FFFFFF;}
	.st1{opacity:0.702;fill:#6489FA;}
	.st2{fill:#6489FA;}
</style>
<rect x="-0.13" y="-0.16" class="st0" width="24" height="24"/>
<path class="st1" d="M2,4V2c0-0.28,0.22-0.5,0.5-0.5h19C21.78,1.5,22,1.72,22,2v2c0,0.28-0.22,0.5-0.5,0.5h-19C2.22,4.5,2,4.28,2,4z
	"/>
<path class="st2" d="M2,10V8c0-0.28,0.22-0.5,0.5-0.5h19C21.78,7.5,22,7.72,22,8v2c0,0.28-0.22,0.5-0.5,0.5h-19
	C2.22,10.5,2,10.28,2,10z"/>
<path class="st1" d="M2,16v-2c0-0.28,0.22-0.5,0.5-0.5h19c0.28,0,0.5,0.22,0.5,0.5v2c0,0.28-0.22,0.5-0.5,0.5h-19
	C2.22,16.5,2,16.28,2,16z"/>
<path class="st1" d="M2,22v-2c0-0.28,0.22-0.5,0.5-0.5h19c0.28,0,0.5,0.22,0.5,0.5v2c0,0.28-0.22,0.5-0.5,0.5h-19
	C2.22,22.5,2,22.28,2,22z"/>
</svg>
